M48
; DRILL file KiCad 10.0.6 date 2026-10-04T00:27:10
; FORMAT={-:-/ absolute / metric / decimal}
; #@! TF.CreationDate,2026-10-04T00:27:10+13:00
; #@! TF.GenerationSoftware,Kicad,Pcbnew,10.0.6
; #@! TF.FileFunction,Plated,1,2,PTH
FMAT,2
METRIC
; #@! TA.AperFunction,Plated,PTH,ComponentDrill
T1C0.889
; #@! TA.AperFunction,Plated,PTH,ComponentDrill
T2C1.000
; #@! TA.AperFunction,Plated,PTH,ComponentDrill
T3C1.500
%
G90
G05
T1
X123.0Y-92.26
X123.0Y-94.8
X123.0Y-97.34
X123.0Y-99.88
X123.0Y-102.42
X123.0Y-104.96
X123.0Y-107.5
X138.24Y-92.26
X138.24Y-94.8
X138.24Y-97.34
X138.24Y-99.88
X138.24Y-102.42
X138.24Y-104.96
X138.24Y-107.5
T2
X99.5Y-90.0
X99.5Y-92.54
X99.5Y-95.08
X99.5Y-97.62
X99.5Y-100.16
X99.5Y-102.7
X99.5Y-105.24
X99.5Y-107.78
X147.0Y-97.5
X154.6Y-97.5
T3
X98.5Y-131.0
X104.85Y-128.46
X117.73Y-131.04
X124.08Y-128.5
X136.88Y-131.0
X143.23Y-128.46
X156.0Y-131.0
X162.35Y-128.46
M30
